<svg xmlns="http://www.w3.org/2000/svg" viewBox="0 0 32 32">
  <rect width="32" height="32" rx="6" fill="#1a2332"/>
  <g transform="translate(3,3) scale(0.26)" fill="none" stroke="#e2e8f0" stroke-width="4" stroke-linecap="round">
    <path d="M38 8 C58 8, 68 18, 68 30"/>
    <path d="M30 8 C62 8, 74 24, 74 38"/>
    <path d="M22 8 C66 8, 80 30, 80 46"/>
    <path d="M14 12 C58 4, 86 34, 80 54"/>
    <path d="M62 92 C42 92, 32 82, 32 70"/>
    <path d="M70 92 C38 92, 26 76, 26 62"/>
    <path d="M78 92 C34 92, 20 70, 20 54"/>
    <path d="M86 88 C42 96, 14 66, 20 46"/>
    <circle cx="38" cy="8" r="4" fill="#e2e8f0" stroke="none"/>
    <circle cx="30" cy="8" r="4" fill="#e2e8f0" stroke="none"/>
    <circle cx="22" cy="8" r="4" fill="#e2e8f0" stroke="none"/>
    <circle cx="14" cy="12" r="4" fill="#e2e8f0" stroke="none"/>
    <circle cx="68" cy="30" r="4" fill="#e2e8f0" stroke="none"/>
    <circle cx="74" cy="38" r="4" fill="#e2e8f0" stroke="none"/>
    <circle cx="80" cy="46" r="4" fill="#e2e8f0" stroke="none"/>
    <circle cx="80" cy="54" r="4" fill="#e2e8f0" stroke="none"/>
    <circle cx="62" cy="92" r="4" fill="#e2e8f0" stroke="none"/>
    <circle cx="70" cy="92" r="4" fill="#e2e8f0" stroke="none"/>
    <circle cx="78" cy="92" r="4" fill="#e2e8f0" stroke="none"/>
    <circle cx="86" cy="88" r="4" fill="#e2e8f0" stroke="none"/>
    <circle cx="32" cy="70" r="4" fill="#e2e8f0" stroke="none"/>
    <circle cx="26" cy="62" r="4" fill="#e2e8f0" stroke="none"/>
    <circle cx="20" cy="54" r="4" fill="#e2e8f0" stroke="none"/>
    <circle cx="20" cy="46" r="4" fill="#e2e8f0" stroke="none"/>
  </g>
</svg>
